<svg width="100" height="100" viewBox="0 0 100 100" fill="none" xmlns="http://www.w3.org/2000/svg">
<g clip-path="url(#clip0_10_1391)">
<path d="M0 36.1905C0 23.5226 0 17.1887 2.46533 12.3502C4.63389 8.09417 8.09417 4.63389 12.3502 2.46533C17.1887 0 23.5226 0 36.1905 0H63.8095C76.4774 0 82.8113 0 87.6498 2.46533C91.9058 4.63389 95.3661 8.09417 97.5347 12.3502C100 17.1887 100 23.5226 100 36.1905V63.8095C100 76.4774 100 82.8113 97.5347 87.6498C95.3661 91.9058 91.9058 95.3661 87.6498 97.5347C82.8113 100 76.4774 100 63.8095 100H36.1905C23.5226 100 17.1887 100 12.3502 97.5347C8.09417 95.3661 4.63389 91.9058 2.46533 87.6498C0 82.8113 0 76.4774 0 63.8095V36.1905Z" fill="#001E36"/>
<path d="M21.4287 73.2723V29.2979C21.4287 28.9988 21.5537 28.8279 21.8454 28.8279C26.1512 28.8279 30.4551 28.5714 34.762 28.5714C41.7507 28.5714 49.3179 30.9611 51.9704 38.2723C52.5954 40.0672 52.9287 41.9048 52.9287 43.8279C52.9287 47.5031 52.0954 50.5373 50.4287 52.9304C45.773 59.6155 37.7037 59.5116 30.4704 59.5116V73.2296C30.5269 73.6357 30.1809 73.8279 29.8454 73.8279H21.9287C21.5954 73.8279 21.4287 73.6569 21.4287 73.2723ZM30.512 37.0757V51.4347C33.3801 51.6448 36.3813 51.6676 39.137 50.7509C42.1793 49.8734 43.8454 47.2398 43.8454 44.0843C43.93 41.3953 42.4647 38.8153 39.9704 37.8449C37.2479 36.7129 33.4509 36.6451 30.512 37.0757Z" fill="#31A8FF"/>
<path d="M78.9168 48.5978C77.656 47.9334 76.3133 47.4473 74.9253 47.1529C73.1416 46.7331 66.1065 45.2632 66.1039 48.9418C66.1663 50.9955 69.4262 52.0016 70.8666 52.5883C75.9232 54.3244 81.6454 57.4276 81.533 63.6657C81.6876 71.4315 74.1634 74.5359 67.7138 74.5367C64.3561 74.5714 60.8583 74.0514 57.7854 72.6101C57.4921 72.4548 57.3033 72.1228 57.3158 71.7844V64.3537C57.2828 64.0558 57.6025 63.7954 57.8525 64.0097C60.8633 65.8305 64.432 66.7146 67.915 66.7618C69.4525 66.7618 72.4999 66.6128 72.4768 64.3537C72.4768 62.1858 68.8314 61.1891 67.3783 60.6383C65.2719 59.8864 63.2748 58.8448 61.4414 57.5422C58.8794 55.7147 57.2721 52.7846 57.3159 49.561C57.3009 42.2489 64.2268 38.9668 70.4643 38.9653C73.3802 38.9412 76.5114 39.1572 79.2258 40.3413C79.6161 40.4562 79.697 40.8674 79.6954 41.2358V48.1849C79.7202 48.6163 79.2411 48.7632 78.9168 48.5978Z" fill="#31A8FF"/>
</g>
<defs>
<clipPath id="clip0_10_1391">
<rect width="100" height="100" fill="white"/>
</clipPath>
</defs>
</svg>
