<svg width="100" height="100" viewBox="0 0 100 100" fill="none" xmlns="http://www.w3.org/2000/svg">
<g clip-path="url(#clip0_10_1250)">
<path fill-rule="evenodd" clip-rule="evenodd" d="M0 0H100V100H0V0V0Z" fill="#F7DF1E"/>
<path fill-rule="evenodd" clip-rule="evenodd" d="M26.2936 83.5673L33.9463 78.936C35.4227 81.5537 36.7657 83.7684 39.9871 83.7684C43.075 83.7684 45.0219 82.5605 45.0219 77.8621V45.9097H54.4193V77.9949C54.4193 87.7283 48.7139 92.1586 40.39 92.1586C32.8723 92.1586 28.5085 88.2651 26.2935 83.5665" fill="black"/>
<path fill-rule="evenodd" clip-rule="evenodd" d="M59.5239 82.5603L67.1757 78.13C69.19 81.4195 71.8079 83.8359 76.4393 83.8359C80.3331 83.8359 82.8162 81.889 82.8162 79.204C82.8162 75.9819 80.2655 74.8406 75.9693 72.9617L73.6206 71.9541C66.8404 69.0683 62.3428 65.4435 62.3428 57.7909C62.3428 50.7427 67.7128 45.3724 76.1039 45.3724C82.0782 45.3724 86.3742 47.4535 89.4617 52.8908L82.1449 57.5894C80.5338 54.7032 78.789 53.5622 76.1041 53.5622C73.3519 53.5622 71.6065 55.3075 71.6065 57.5894C71.6065 60.4087 73.3519 61.5502 77.379 63.2956L79.7282 64.3024C87.7163 67.726 92.2139 71.2162 92.2139 79.0697C92.2139 87.5281 85.5685 92.1594 76.6409 92.1594C67.9146 92.1594 62.2758 87.9978 59.5241 82.5603" fill="black"/>
</g>
<defs>
<clipPath id="clip0_10_1250">
<rect width="100" height="100" fill="white"/>
</clipPath>
</defs>
</svg>
